<?xml version="1.0" standalone="no"?>
<!DOCTYPE svg PUBLIC "-//W3C//DTD SVG 20010904//EN"
 "http://www.w3.org/TR/2001/REC-SVG-20010904/DTD/svg10.dtd">
<svg version="1.0" xmlns="http://www.w3.org/2000/svg"
 width="700.000000pt" height="700.000000pt" viewBox="0 0 700.000000 700.000000"
 preserveAspectRatio="xMidYMid meet">
<metadata>
Created by potrace 1.14, written by Peter Selinger 2001-2017
</metadata>
<g transform="translate(0.000000,700.000000) scale(0.100000,-0.100000)"
fill="#000000" stroke="none">
<path d="M3240 6993 c-315 -31 -479 -61 -715 -129 -844 -244 -1568 -800 -2023
-1553 -228 -378 -377 -779 -456 -1231 -15 -83 -18 -106 -36 -275 -8 -83 -5
-590 5 -660 35 -260 64 -414 101 -545 103 -369 248 -695 442 -995 226 -349
550 -690 886 -934 396 -286 807 -470 1321 -589 75 -18 280 -50 365 -57 41 -4
89 -9 105 -11 42 -7 458 -7 525 0 30 3 82 8 115 11 71 7 353 53 375 61 8 3 26
8 40 10 118 22 375 104 552 177 980 406 1740 1265 2023 2287 51 184 93 400
109 565 3 28 8 79 12 115 7 78 8 444 0 515 -2 28 -8 84 -11 125 -3 41 -8 82
-10 90 -2 8 -7 35 -10 60 -60 461 -272 1006 -558 1430 -228 338 -574 692 -882
900 -27 18 -52 37 -55 40 -9 12 -238 149 -333 199 -53 28 -137 69 -189 91 -51
23 -107 48 -123 55 -197 89 -595 194 -850 225 -49 6 -103 13 -120 16 -36 6
-555 13 -605 7z"/>
</g>
</svg>
