<?xml version="1.0" encoding="UTF-8" standalone="no"?>
<!DOCTYPE svg PUBLIC "-//W3C//DTD SVG 1.1//EN" "http://www.w3.org/Graphics/SVG/1.1/DTD/svg11.dtd">
<svg width="40px" height="40px" viewBox="0 0 800 800" version="1.1" xmlns="http://www.w3.org/2000/svg" xmlns:xlink="http://www.w3.org/1999/xlink" xml:space="preserve" xmlns:serif="http://www.serif.com/" style="fill-rule:evenodd;clip-rule:evenodd;stroke-linejoin:round;stroke-miterlimit:2;">
    <path d="M760,160C760,181.943 741.943,200 720,200L80,200C58.057,200 40,181.943 40,160C40,138.057 58.057,120 80,120L720,120C741.943,120 760,138.057 760,160ZM760,400C760,421.943 741.943,440 720,440L80,440C58.057,440 40,421.943 40,400C40,378.057 58.057,360 80,360L720,360C741.943,360 760,378.057 760,400ZM720,680C741.943,680 760,661.943 760,640C760,618.057 741.943,600 720,600L80,600C58.057,600 40,618.057 40,640C40,661.943 58.057,680 80,680L720,680Z"/>
    <clipPath id="_clip1">
        <path d="M760,160C760,181.943 741.943,200 720,200L80,200C58.057,200 40,181.943 40,160C40,138.057 58.057,120 80,120L720,120C741.943,120 760,138.057 760,160ZM760,400C760,421.943 741.943,440 720,440L80,440C58.057,440 40,421.943 40,400C40,378.057 58.057,360 80,360L720,360C741.943,360 760,378.057 760,400ZM720,680C741.943,680 760,661.943 760,640C760,618.057 741.943,600 720,600L80,600C58.057,600 40,618.057 40,640C40,661.943 58.057,680 80,680L720,680Z"/>
    </clipPath>
    <g clip-path="url(#_clip1)">
        <path d="M760,160C760,181.943 741.943,200 720,200L80,200C58.057,200 40,181.943 40,160C40,138.057 58.057,120 80,120L720,120C741.943,120 760,138.057 760,160Z" style="fill:black;"/>
        <path d="M760,400C760,421.943 741.943,440 720,440L80,440C58.057,440 40,421.943 40,400C40,378.057 58.057,360 80,360L720,360C741.943,360 760,378.057 760,400Z" style="fill:black;"/>
        <path d="M720,680L80,680C58.057,680 40,661.943 40,640C40,618.057 58.057,600 80,600L720,600C741.943,600 760,618.057 760,640C760,661.943 741.943,680 720,680Z" style="fill:black;"/>
    </g>
</svg>
