<svg fill="none" height="15" viewBox="0 0 15 15" width="15" xmlns="http://www.w3.org/2000/svg"><path clip-rule="evenodd" d="m11.8536 11.8536c-.1953.1952-.5119.1952-.7072 0l-3.6464-3.64649-3.64645 3.64649c-.19526.1952-.51184.1952-.7071 0-.19527-.1953-.19527-.5119 0-.7072l4-3.99995c.19526-.19527.51184-.19527.7071 0l4.00005 3.99995c.1952.1953.1952.5119 0 .7072zm0-4.00005c-.1953.19527-.5119.19527-.7072 0l-3.6464-3.64644-3.64645 3.64644c-.19526.19527-.51184.19527-.7071 0-.19527-.19526-.19527-.51184 0-.7071l4-4c.19526-.19527.51184-.19527.7071 0l4.00005 4c.1952.19526.1952.51184 0 .7071z" fill="#151515" fill-rule="evenodd"/></svg>