<?xml version="1.0" encoding="UTF-8" standalone="no"?>
<!DOCTYPE svg PUBLIC "-//W3C//DTD SVG 1.1//EN" "http://www.w3.org/Graphics/SVG/1.1/DTD/svg11.dtd">
<svg width="100%" height="100%" viewBox="0 0 15 15" version="1.1" xmlns="http://www.w3.org/2000/svg" xmlns:xlink="http://www.w3.org/1999/xlink" xml:space="preserve" xmlns:serif="http://www.serif.com/" style="fill-rule:evenodd;clip-rule:evenodd;stroke-linejoin:round;stroke-miterlimit:2;">
    <g transform="matrix(1.64783,0,0,1.64783,-4.85873,-4.85873)">
        <path d="M11.854,11.854C11.658,12.049 11.342,12.049 11.146,11.854L7.5,8.207L3.854,11.854C3.658,12.049 3.342,12.049 3.146,11.854C2.951,11.658 2.951,11.342 3.146,11.146L7.146,7.146C7.342,6.951 7.658,6.951 7.854,7.146L11.854,11.146C12.049,11.342 12.049,11.658 11.854,11.854ZM11.854,7.854C11.658,8.049 11.342,8.049 11.146,7.854L7.5,4.207L3.854,7.854C3.658,8.049 3.342,8.049 3.146,7.854C2.951,7.658 2.951,7.342 3.146,7.146L7.146,3.146C7.342,2.951 7.658,2.951 7.854,3.146L11.854,7.146C12.049,7.342 12.049,7.658 11.854,7.854Z" style="fill:rgb(21,21,21);"/>
        <clipPath id="_clip1">
            <path d="M11.854,11.854C11.658,12.049 11.342,12.049 11.146,11.854L7.5,8.207L3.854,11.854C3.658,12.049 3.342,12.049 3.146,11.854C2.951,11.658 2.951,11.342 3.146,11.146L7.146,7.146C7.342,6.951 7.658,6.951 7.854,7.146L11.854,11.146C12.049,11.342 12.049,11.658 11.854,11.854ZM11.854,7.854C11.658,8.049 11.342,8.049 11.146,7.854L7.5,4.207L3.854,7.854C3.658,8.049 3.342,8.049 3.146,7.854C2.951,7.658 2.951,7.342 3.146,7.146L7.146,3.146C7.342,2.951 7.658,2.951 7.854,3.146L11.854,7.146C12.049,7.342 12.049,7.658 11.854,7.854Z"/>
        </clipPath>
        <g clip-path="url(#_clip1)">
            <g transform="matrix(0.606858,0,0,0.606858,2.94856,2.94856)">
                <path d="M14.674,8.083C14.352,8.404 13.83,8.404 13.509,8.083L7.5,2.074L1.491,8.083C1.17,8.404 0.648,8.404 0.326,8.083C0.004,7.761 0.004,7.239 0.326,6.917L6.917,0.326C7.239,0.004 7.761,0.004 8.083,0.326L14.674,6.917C14.996,7.239 14.996,7.761 14.674,8.083Z" style="fill:black;"/>
            </g>
            <g transform="matrix(0.606858,0,0,0.606858,2.94856,2.94856)">
                <path d="M14.674,14.674C14.352,14.996 13.83,14.996 13.509,14.674L7.5,8.665L1.491,14.674C1.17,14.996 0.648,14.996 0.326,14.674C0.004,14.352 0.004,13.83 0.326,13.509L6.917,6.917C7.239,6.596 7.761,6.596 8.083,6.917L14.674,13.509C14.996,13.83 14.996,14.352 14.674,14.674Z" style="fill:black;"/>
            </g>
        </g>
    </g>
</svg>
