<?xml version="1.0" encoding="UTF-8" standalone="no"?>
<!DOCTYPE svg PUBLIC "-//W3C//DTD SVG 1.1//EN" "http://www.w3.org/Graphics/SVG/1.1/DTD/svg11.dtd">
<svg width="100%" height="100%" viewBox="0 0 5906 5906" version="1.1" xmlns="http://www.w3.org/2000/svg" xmlns:xlink="http://www.w3.org/1999/xlink" xml:space="preserve" xmlns:serif="http://www.serif.com/" style="fill-rule:evenodd;clip-rule:evenodd;stroke-linejoin:round;stroke-miterlimit:2;">
    <rect x="0" y="0" width="5905.51" height="5905.51" style="fill:white;"/>
    <g transform="matrix(0.960037,0,0,0.960037,118,118)">
        <path d="M0,0L0,1653.54L1653.54,1653.54L1653.54,0L0,0ZM1889.76,0L1889.76,236.22L2125.98,236.22L2125.98,472.441L2362.2,472.441L2362.2,708.661L2598.43,708.661L2598.43,236.22L2125.98,236.22L2125.98,0L1889.76,0ZM2598.43,0L2598.43,236.22L3070.87,236.22L3070.87,0L2598.43,0ZM3307.09,0L3307.09,236.22L3543.31,236.22L3543.31,0L3307.09,0ZM3779.53,0L3779.53,472.441L4015.75,472.441L4015.75,0L3779.53,0ZM4251.97,0L4251.97,1653.54L5905.51,1653.54L5905.51,0L4251.97,0ZM1417.32,236.22L1417.32,1417.32L236.22,1417.32L236.22,236.22L1417.32,236.22ZM5669.29,236.22L5669.29,1417.32L4488.19,1417.32L4488.19,236.22L5669.29,236.22ZM472.441,472.441L472.441,1181.1L1181.1,1181.1L1181.1,472.441L472.441,472.441ZM2834.65,472.441L2834.65,944.882L3307.09,944.882L3307.09,1181.1L3543.31,1181.1L3543.31,944.882L3307.09,944.882L3307.09,708.661L3779.53,708.661L3779.53,1181.1L4015.75,1181.1L4015.75,708.661L3779.53,708.661L3779.53,472.441L2834.65,472.441ZM4724.41,472.441L4724.41,1181.1L5433.07,1181.1L5433.07,472.441L4724.41,472.441ZM2125.98,944.882L2125.98,1181.1L2362.2,1181.1L2362.2,1889.76L2125.98,1889.76L2125.98,1417.32L1889.76,1417.32L1889.76,1889.76L2125.98,1889.76L2125.98,2125.98L1653.54,2125.98L1653.54,1889.76L1417.32,1889.76L1417.32,2125.98L1653.54,2125.98L1653.54,2362.2L1889.76,2362.2L1889.76,2598.43L2125.98,2598.43L2125.98,2834.65L1889.76,2834.65L1889.76,2598.43L1653.54,2598.43L1653.54,2362.2L1181.1,2362.2L1181.1,1889.76L708.661,1889.76L708.661,2362.2L1181.1,2362.2L1181.1,2598.43L1653.54,2598.43L1653.54,2834.65L1889.76,2834.65L1889.76,3070.87L2362.2,3070.87L2362.2,2834.65L2598.43,2834.65L2598.43,3307.09L2834.65,3307.09L2834.65,3543.31L3307.09,3543.31L3307.09,3779.53L3543.31,3779.53L3543.31,3543.31L4015.75,3543.31L4015.75,3779.53L3779.53,3779.53L3779.53,4488.19L3543.31,4488.19L3543.31,4015.75L3307.09,4015.75L3307.09,3779.53L2834.65,3779.53L2834.65,4015.75L3307.09,4015.75L3307.09,4488.19L3543.31,4488.19L3543.31,4724.41L3307.09,4724.41L3307.09,4488.19L3070.87,4488.19L3070.87,4251.97L2598.43,4251.97L2598.43,4015.75L1889.76,4015.75L1889.76,4251.97L2125.98,4251.97L2125.98,4488.19L2362.2,4488.19L2362.2,4724.41L2834.65,4724.41L2834.65,4960.63L3070.87,4960.63L3070.87,4724.41L3307.09,4724.41L3307.09,5196.85L3543.31,5196.85L3543.31,5433.07L3779.53,5433.07L3779.53,5196.85L4488.19,5196.85L4488.19,4960.63L4960.63,4960.63L4960.63,3779.53L4724.41,3779.53L4724.41,3543.31L4015.75,3543.31L4015.75,3307.09L3779.53,3307.09L3779.53,3070.87L3543.31,3070.87L3543.31,3307.09L3307.09,3307.09L3307.09,3070.87L3070.87,3070.87L3070.87,2834.65L2834.65,2834.65L2834.65,2362.2L2362.2,2362.2L2362.2,2125.98L2834.65,2125.98L2834.65,2362.2L3070.87,2362.2L3070.87,2598.43L3543.31,2598.43L3543.31,2834.65L3779.53,2834.65L3779.53,3070.87L4015.75,3070.87L4015.75,3307.09L4251.97,3307.09L4251.97,3070.87L4015.75,3070.87L4015.75,2834.65L3779.53,2834.65L3779.53,2125.98L3543.31,2125.98L3543.31,1889.76L3307.09,1889.76L3307.09,1653.54L3070.87,1653.54L3070.87,1181.1L2834.65,1181.1L2834.65,944.882L2598.43,944.882L2598.43,1181.1L2834.65,1181.1L2834.65,1653.54L3070.87,1653.54L3070.87,1889.76L3307.09,1889.76L3307.09,2125.98L3543.31,2125.98L3543.31,2362.2L3070.87,2362.2L3070.87,1889.76L2834.65,1889.76L2834.65,1653.54L2598.43,1653.54L2598.43,1181.1L2362.2,1181.1L2362.2,944.882L2125.98,944.882ZM3307.09,1417.32L3307.09,1653.54L3543.31,1653.54L3543.31,1417.32L3307.09,1417.32ZM3779.53,1417.32L3779.53,2125.98L4015.75,2125.98L4015.75,1417.32L3779.53,1417.32ZM0,1889.76L0,2598.43L236.22,2598.43L236.22,2834.65L472.441,2834.65L472.441,3070.87L0,3070.87L0,4015.75L236.22,4015.75L236.22,3543.31L708.661,3543.31L708.661,3779.53L944.882,3779.53L944.882,4015.75L1653.54,4015.75L1653.54,3779.53L1417.32,3779.53L1417.32,3543.31L944.882,3543.31L944.882,3307.09L1181.1,3307.09L1181.1,3070.87L1653.54,3070.87L1653.54,3307.09L1889.76,3307.09L1889.76,3070.87L1653.54,3070.87L1653.54,2834.65L472.441,2834.65L472.441,2598.43L236.22,2598.43L236.22,2125.98L472.441,2125.98L472.441,1889.76L0,1889.76ZM4251.97,1889.76L4251.97,2125.98L4488.19,2125.98L4488.19,2362.2L4724.41,2362.2L4724.41,2598.43L4960.63,2598.43L4960.63,2834.65L5669.29,2834.65L5669.29,3070.87L5905.51,3070.87L5905.51,2362.2L5669.29,2362.2L5669.29,2125.98L4488.19,2125.98L4488.19,1889.76L4251.97,1889.76ZM5669.29,1889.76L5669.29,2125.98L5905.51,2125.98L5905.51,1889.76L5669.29,1889.76ZM472.441,2362.2L472.441,2598.43L708.661,2598.43L708.661,2362.2L472.441,2362.2ZM4015.75,2362.2L4015.75,2598.43L4251.97,2598.43L4251.97,3070.87L4488.19,3070.87L4488.19,2362.2L4015.75,2362.2ZM2362.2,2598.43L2125.98,2598.43L2125.98,2362.2L2362.2,2362.2L2362.2,2598.43ZM5196.85,2598.43L5196.85,2362.2L5669.29,2362.2L5669.29,2598.43L5196.85,2598.43ZM4724.41,3070.87L4724.41,3543.31L4960.63,3543.31L4960.63,3779.53L5196.85,3779.53L5196.85,4251.97L5669.29,4251.97L5669.29,4488.19L5905.51,4488.19L5905.51,4251.97L5669.29,4251.97L5669.29,3779.53L5433.07,3779.53L5433.07,3543.31L5669.29,3543.31L5669.29,3779.53L5905.51,3779.53L5905.51,3307.09L5669.29,3307.09L5669.29,3070.87L5433.07,3070.87L5433.07,3307.09L4960.63,3307.09L4960.63,3070.87L4724.41,3070.87ZM1417.32,3307.09L1417.32,3543.31L1653.54,3543.31L1653.54,3307.09L1417.32,3307.09ZM2125.98,3307.09L2125.98,3779.53L2362.2,3779.53L2362.2,3307.09L2125.98,3307.09ZM3070.87,3307.09L2834.65,3307.09L2834.65,3070.87L3070.87,3070.87L3070.87,3307.09ZM4724.41,4015.75L4724.41,4724.41L4015.75,4724.41L4015.75,4015.75L4724.41,4015.75ZM0,4251.97L0,5905.51L1653.54,5905.51L1653.54,4251.97L0,4251.97ZM4251.97,4251.97L4251.97,4488.19L4488.19,4488.19L4488.19,4251.97L4251.97,4251.97ZM1417.32,4488.19L1417.32,5669.29L236.22,5669.29L236.22,4488.19L1417.32,4488.19ZM2598.43,4488.19L2362.2,4488.19L2362.2,4251.97L2598.43,4251.97L2598.43,4488.19ZM5433.07,4488.19L5433.07,4724.41L5669.29,4724.41L5669.29,4488.19L5433.07,4488.19ZM472.441,4724.41L472.441,5433.07L1181.1,5433.07L1181.1,4724.41L472.441,4724.41ZM1889.76,4724.41L1889.76,5196.85L2125.98,5196.85L2125.98,4724.41L1889.76,4724.41ZM2362.2,4960.63L2362.2,5905.51L3070.87,5905.51L3070.87,5433.07L2834.65,5433.07L2834.65,4960.63L2362.2,4960.63ZM5433.07,4960.63L5433.07,5196.85L4724.41,5196.85L4724.41,5433.07L4015.75,5433.07L4015.75,5669.29L3779.53,5669.29L3779.53,5905.51L4488.19,5905.51L4488.19,5669.29L4960.63,5669.29L4960.63,5905.51L5196.85,5905.51L5196.85,5669.29L4960.63,5669.29L4960.63,5433.07L5196.85,5433.07L5196.85,5669.29L5669.29,5669.29L5669.29,5905.51L5905.51,5905.51L5905.51,4960.63L5433.07,4960.63ZM3070.87,5196.85L3070.87,5433.07L3307.09,5433.07L3307.09,5196.85L3070.87,5196.85ZM1889.76,5433.07L1889.76,5905.51L2125.98,5905.51L2125.98,5433.07L1889.76,5433.07Z"/>
    </g>
</svg>
